<?xml version="1.0" standalone="no"?>
<!DOCTYPE svg PUBLIC "-//W3C//DTD SVG 20010904//EN"
 "http://www.w3.org/TR/2001/REC-SVG-20010904/DTD/svg10.dtd">
<svg version="1.0" xmlns="http://www.w3.org/2000/svg"
 width="24.000000pt" height="24.000000pt" viewBox="0 0 24.000000 24.000000"
 preserveAspectRatio="xMidYMid meet">

<g transform="translate(0.000000,24.000000) scale(0.100000,-0.100000)"
fill="#000000" stroke="none">
<path d="M52 208 c-16 -16 -16 -160 0 -176 16 -16 120 -16 136 0 15 15 16 58
2 58 -5 0 -10 -11 -10 -25 0 -24 -3 -25 -60 -25 l-60 0 0 80 0 80 60 0 c57 0
60 -1 60 -25 0 -14 5 -25 10 -25 14 0 13 43 -2 58 -16 16 -120 16 -136 0z"/>
<path d="M100 145 l-24 -26 27 -26 c27 -28 50 -26 27 2 -11 13 -7 15 29 15 22
0 41 5 41 10 0 6 -19 10 -42 10 -33 0 -39 3 -30 12 7 7 12 16 12 20 0 15 -17
8 -40 -17z"/>
</g>
</svg>
